# xmcd CD database file
#
# Track frame offsets:
#	150
#	25262
#	50132
#	72675
#	94295
#	112335
#	148377
#	176467
#	198185
#	223975
#	254065
#
# Disc length: 3790 seconds
#
# Revision: 14
# Processed by: cddbd v1.5.2PL0 Copyright (c) Steve Scherf et al.
# Submitted via: CDex 1.70
#
DISCID=bf0ecc0b
DTITLE=????? - ??-Time goes around-
DYEAR=1993
DGENRE=JPop
TTITLE0=??
TTITLE1=???
TTITLE2=?????
TTITLE3=??????
TTITLE4=?????
TTITLE5=?????????
TTITLE6=????
TTITLE7=?????
TTITLE8=??
TTITLE9=????? 1st.
TTITLE10=?????
EXTD=YEAR: 1993
EXTT0=
EXTT1=
EXTT2=
EXTT3=
EXTT4=
EXTT5=
EXTT6=
EXTT7=
EXTT8=
EXTT9=
EXTT10=
PLAYORDER=
